<svg width="11" height="16" viewBox="0 0 11 16" fill="none" xmlns="http://www.w3.org/2000/svg">
<path d="M0.965574 7.98108C0.965307 7.76303 1.01114 7.54743 1.10001 7.34867C1.18887 7.14991 1.31874 6.97257 1.48093 6.82846L8.84921 0.288071C9.09338 0.0813522 9.40801 -0.0207766 9.72584 0.00352215C10.0437 0.0278209 10.3395 0.176619 10.55 0.418098C10.7605 0.659578 10.869 0.974572 10.8523 1.29573C10.8356 1.61688 10.6951 1.91871 10.4607 2.13666L4.01741 7.85575C3.99972 7.8714 3.98555 7.89067 3.97584 7.91228C3.96613 7.9339 3.96111 7.95735 3.96111 7.98108C3.96111 8.00481 3.96613 8.02827 3.97584 8.04988C3.98555 8.0715 3.99972 8.09077 4.01741 8.10641L10.4607 13.8255C10.5853 13.931 10.6877 14.0605 10.762 14.2065C10.8362 14.3525 10.8808 14.5121 10.8931 14.6757C10.9054 14.8393 10.8852 15.0038 10.8335 15.1594C10.7819 15.315 10.7 15.4587 10.5926 15.5819C10.4852 15.7051 10.3544 15.8054 10.208 15.877C10.0616 15.9485 9.90256 15.9897 9.74014 15.9983C9.57771 16.0069 9.41523 15.9826 9.26223 15.927C9.10923 15.8713 8.9688 15.7853 8.84921 15.6741L1.48357 9.1357C1.32098 8.99134 1.1907 8.81373 1.10139 8.61465C1.01208 8.41558 0.96578 8.1996 0.965574 7.98108Z" fill="#333333"/>
</svg>
