<svg width="16" height="16" viewBox="0 0 16 16" fill="none" xmlns="http://www.w3.org/2000/svg">
<path d="M15.1246 7.23884C15.3199 7.4441 15.4289 7.71662 15.4289 7.99999C15.4289 8.28336 15.3199 8.55587 15.1246 8.76113C13.92 10.0571 11.184 12.5714 8 12.5714C4.816 12.5714 2.08 10.0571 0.875433 8.76113C0.680067 8.55587 0.571106 8.28336 0.571106 7.99999C0.571106 7.71662 0.680067 7.4441 0.875433 7.23884C2.08 5.94284 4.816 3.42856 8 3.42856C11.184 3.42856 13.92 5.94284 15.1246 7.23884Z" stroke="#18C6AC" stroke-width="1.14286" stroke-linecap="round" stroke-linejoin="round"/>
<path d="M5.71429 7.99998C5.71429 8.60619 5.95511 9.18757 6.38376 9.61622C6.81242 10.0449 7.3938 10.2857 8.00001 10.2857C8.60622 10.2857 9.1876 10.0449 9.61625 9.61622C10.0449 9.18757 10.2857 8.60619 10.2857 7.99998C10.2857 7.39377 10.0449 6.81239 9.61625 6.38373C9.1876 5.95508 8.60622 5.71426 8.00001 5.71426C7.3938 5.71426 6.81242 5.95508 6.38376 6.38373C5.95511 6.81239 5.71429 7.39377 5.71429 7.99998V7.99998Z" stroke="#18C6AC" stroke-width="1.14286" stroke-linecap="round" stroke-linejoin="round"/>
</svg>
