<svg width="15" height="13" viewBox="0 0 15 13" fill="current" xmlns="http://www.w3.org/2000/svg">
<path fill-rule="evenodd" clip-rule="evenodd" d="M7.34995 1.72451C8.10205 0.843002 9.25435 0.285172 10.455 0.285172C12.5802 0.285172 14.25 1.95178 14.25 4.07291C14.25 6.67398 11.9078 8.79377 8.3592 12.0055L8.35045 12.0134L7.34995 12.9224L6.34945 12.0203L6.32222 11.9956C2.78397 8.7864 0.449951 6.66946 0.449951 4.07291C0.449951 1.95178 2.11975 0.285172 4.24495 0.285172C5.44555 0.285172 6.59785 0.843002 7.34995 1.72451ZM7.34995 11.063L7.41895 10.9941C10.7034 8.02593 12.87 6.06319 12.87 4.07291C12.87 2.69555 11.835 1.66253 10.455 1.66253C9.39235 1.66253 8.35735 2.34432 7.99855 3.28781H6.70825C6.34255 2.34432 5.30755 1.66253 4.24495 1.66253C2.86495 1.66253 1.82995 2.69555 1.82995 4.07291C1.82995 6.06319 3.99655 8.02593 7.28095 10.9941L7.34995 11.063Z" fill="current" stroke="current"/>
</svg>
