<svg width="24" height="25" viewBox="0 0 24 25" fill="none" xmlns="http://www.w3.org/2000/svg">
<path fill-rule="evenodd" clip-rule="evenodd" d="M0.75 2.50024C0.75 1.67182 1.42157 1.00024 2.25 1.00024H21.75C22.5784 1.00024 23.25 1.67182 23.25 2.50024V22.0002C23.25 22.8287 22.5784 23.5002 21.75 23.5002H2.25C1.42157 23.5002 0.75 22.8287 0.75 22.0002V2.50024Z" stroke="current" stroke-width="1.5" stroke-linecap="round" stroke-linejoin="round"/>
<path fill-rule="evenodd" clip-rule="evenodd" d="M17.238 20.5002C18.8948 20.5002 20.238 19.1571 20.238 17.5002C20.238 15.8434 18.8948 14.5002 17.238 14.5002C15.5811 14.5002 14.238 15.8434 14.238 17.5002C14.238 19.1571 15.5811 20.5002 17.238 20.5002Z" stroke="current" stroke-width="1.5" stroke-linecap="round" stroke-linejoin="round"/>
<path fill-rule="evenodd" clip-rule="evenodd" d="M3.75 20.5002L6.75 14.5002L9.75 20.5002H3.75V20.5002Z" stroke="current" stroke-width="1.5" stroke-linecap="round" stroke-linejoin="round"/>
<path fill-rule="evenodd" clip-rule="evenodd" d="M3.75 4.75024H9.75V10.7502H3.75V4.75024Z" stroke="current" stroke-width="1.5" stroke-linecap="round" stroke-linejoin="round"/>
<path fill-rule="evenodd" clip-rule="evenodd" d="M17.267 4.24225L18.134 6.53125H19.821C19.9939 6.52613 20.1518 6.62904 20.2168 6.78929C20.2819 6.94955 20.2405 7.13337 20.113 7.25025L18.648 8.27425L19.46 10.1382C19.5328 10.3134 19.4858 10.5154 19.3432 10.6404C19.2005 10.7654 18.994 10.7855 18.83 10.6902L16.869 9.59025L14.908 10.6902C14.744 10.7855 14.5375 10.7654 14.3948 10.6404C14.2522 10.5154 14.2052 10.3134 14.278 10.1382L15.09 8.27425L13.625 7.25025C13.4942 7.13453 13.4503 6.94905 13.5154 6.78699C13.5805 6.62494 13.7405 6.52134 13.915 6.52825H15.6L16.468 4.23925C16.5449 4.08907 16.6997 3.99485 16.8684 3.99549C17.0372 3.99612 17.1912 4.0915 17.267 4.24225Z" stroke="current" stroke-width="1.5" stroke-linecap="round" stroke-linejoin="round"/>
</svg>
