<svg width="24" height="25" viewBox="0 0 24 25" fill="none" xmlns="http://www.w3.org/2000/svg">
<path d="M7.5 4.0173L5.934 1.6683C5.63747 1.22324 5.1264 0.969718 4.59263 1.0029C4.05886 1.03608 3.58313 1.35094 3.344 1.8293L0.75 7.0173H12.75L10.681 2.8793C10.4652 2.44887 10.0559 2.1482 9.58067 2.07097C9.10541 1.99374 8.62197 2.14935 8.281 2.4893L7.181 3.5423" stroke="current" stroke-width="1.5" stroke-linecap="round" stroke-linejoin="round"/>
<path fill-rule="evenodd" clip-rule="evenodd" d="M20.25 3.25031L17.25 11.5003H23.25L20.25 3.25031Z" stroke="current" stroke-width="1.5" stroke-linecap="round" stroke-linejoin="round"/>
<path d="M20.25 11.5003V14.5003" stroke="current" stroke-width="1.5" stroke-linecap="round" stroke-linejoin="round"/>
<path fill-rule="evenodd" clip-rule="evenodd" d="M3.75 12.2503L0.75 20.5003H6.75L3.75 12.2503Z" stroke="current" stroke-width="1.5" stroke-linecap="round" stroke-linejoin="round"/>
<path d="M3.75 20.5003V23.5003" stroke="current" stroke-width="1.5" stroke-linecap="round" stroke-linejoin="round"/>
<path d="M19.5 19.9503C20.0911 20.5166 20.5282 21.2242 20.77 22.0063" stroke="current" stroke-width="1.5" stroke-linecap="round" stroke-linejoin="round"/>
<path d="M15 18.0983C15.24 18.1563 15.489 18.2073 15.749 18.2503C16.261 18.3332 16.7651 18.459 17.256 18.6263" stroke="current" stroke-width="1.5" stroke-linecap="round" stroke-linejoin="round"/>
<path d="M10.7 14.9173C11.0231 15.5604 11.464 16.137 12 16.6173" stroke="current" stroke-width="1.5" stroke-linecap="round" stroke-linejoin="round"/>
<path d="M9.75003 10.0003C9.74811 10.5848 9.77715 11.1689 9.83703 11.7503" stroke="current" stroke-width="1.5" stroke-linecap="round" stroke-linejoin="round"/>
</svg>
